<svg viewBox="0 0 40 40" xmlns="http://www.w3.org/2000/svg">
  <defs>
    <linearGradient id="grad" x1="0%" y1="100%" x2="100%" y2="0%">
      <stop offset="0%" style="stop-color:#ea580c;stop-opacity:1" />
      <stop offset="100%" style="stop-color:#fb923c;stop-opacity:1" />
    </linearGradient>
  </defs>
  <rect width="40" height="40" rx="10" fill="url(#grad)" />
  <g fill="white" transform="translate(8, 8)">
    <path d="M12 2C12.5523 2 13 2.44772 13 3V5.51869C16.892 6.27552 19.8227 9.47547 19.9953 13.5H4.00465C4.17726 9.47547 7.108 6.27552 11 5.51869V3C11 2.44772 11.4477 2 12 2Z"/>
    <path d="M22 15H2C1.44772 15 1 15.4477 1 16V17C1 18.1046 1.89543 19 3 19H21C22.1046 19 23 18.1046 23 17V16C23 15.4477 22.5523 15 22 15Z"/>
  </g>
</svg>